<?xml version="1.0" encoding="iso-8859-1"?>
<!-- Uploaded to: SVG Repo, www.svgrepo.com, Generator: SVG Repo Mixer Tools -->
<!DOCTYPE svg PUBLIC "-//W3C//DTD SVG 1.1//EN" "http://www.w3.org/Graphics/SVG/1.1/DTD/svg11.dtd">
<svg fill="#ffffff" version="1.1" id="Capa_1" xmlns="http://www.w3.org/2000/svg" xmlns:xlink="http://www.w3.org/1999/xlink"
	 width="800px" height="800px" viewBox="0 0 71.682 71.682"
	 xml:space="preserve">
<g>
	<g>
		<g>
			<path d="M60.482,0H11.202c-3.809,0-6.72,2.912-6.72,6.721V64.96c0,3.81,2.911,6.722,6.72,6.722h49.28
				c3.809,0,6.719-2.912,6.719-6.722V6.72C67.2,2.912,64.29,0,60.482,0z M62.722,64.959c0,1.346-0.896,2.24-2.239,2.24H11.202
				c-1.344,0-2.239-0.896-2.239-2.24V6.72c0-1.345,0.896-2.24,2.239-2.24h49.28c1.344,0,2.239,0.896,2.239,2.24L62.722,64.959
				L62.722,64.959z"/>
			<path d="M55.105,37.633l0.448-0.896c0.447-0.672,0.224-1.344-0.448-1.568c-0.446-0.225-1.345,0-1.567,0.447l-0.447,0.896
				c-1.344-0.447-2.239-0.672-2.463-0.225L40.546,53.76l5.822,3.359l10.079-17.471C56.898,39.424,56.226,38.527,55.105,37.633z"/>
			<path d="M57.12,40.32l-4.929,8.736l0.896,0.447l4.929-8.736c0.225-0.223,0-0.672-0.224-0.896
				C57.794,39.871,57.346,39.871,57.12,40.32z"/>
			<path d="M40.77,60.48c0,0,2.017-0.896,3.81-2.016l-3.81-2.24C40.546,58.24,40.77,60.48,40.77,60.48z"/>
			<rect x="13.442" y="17.024" width="44.801" height="4.48"/>
			<rect x="13.442" y="25.985" width="28.225" height="4.479"/>
			<rect x="13.442" y="34.944" width="28.225" height="4.48"/>
			<rect x="13.442" y="43.905" width="14.111" height="4.479"/>
		</g>
	</g>
</g>
</svg>