<?xml version="1.0" encoding="iso-8859-1"?>
<!-- Uploaded to: SVG Repo, www.svgrepo.com, Generator: SVG Repo Mixer Tools -->
<svg fill="#ffffff" height="800px" width="800px" version="1.1" id="Capa_1" xmlns="http://www.w3.org/2000/svg" xmlns:xlink="http://www.w3.org/1999/xlink"
	 viewBox="0 0 60 60" xml:space="preserve">
<g>
	<g>
		<path d="M17,44.5c0-0.6-0.4-1-1-1H8v-7c0-0.6-0.4-1-1-1H2v-12h5c0.6,0,1-0.4,1-1v-6h8c0.6,0,1-0.4,1-1v-5h13v-2H16
			c-0.6,0-1,0.4-1,1v5H7c-0.6,0-1,0.4-1,1v6H1c-0.6,0-1,0.4-1,1v14c0,0.6,0.4,1,1,1h5v7c0,0.6,0.4,1,1,1h8v5c0,0.6,0.4,1,1,1h14v-2
			H17V44.5z"/>
		<path d="M59,23.5c0.6,0,1-0.4,1-1v-7c0-0.6-0.4-1-1-1h-8v-5c0-0.6-0.4-1-1-1H36c-0.6,0-1,0.4-1,1v5h-8c-0.6,0-1,0.4-1,1v6h-5v2h6
			c0.6,0,1-0.4,1-1v-6h8c0.6,0,1-0.4,1-1v-5h12v5c0,0.6,0.4,1,1,1h8v5h-5c-0.6,0-1,0.4-1,1v14c0,0.6,0.4,1,1,1h5v6h-8
			c-0.6,0-1,0.4-1,1v5H37v-5c0-0.6-0.4-1-1-1h-8v-7c0-0.6-0.4-1-1-1h-6v2h5v7c0,0.6,0.4,1,1,1h8v5c0,0.6,0.4,1,1,1h14
			c0.6,0,1-0.4,1-1v-5h8c0.6,0,1-0.4,1-1v-8c0-0.6-0.4-1-1-1h-5v-12H59z"/>
		<path d="M14.7,25.2l-1.4-1.4l-3,3c-0.4,0.4-0.4,1,0,1.4l3,3l1.4-1.4l-1.3-1.3H34v-2H13.4L14.7,25.2z"/>
		<path d="M24,32.5h22.6l-1.3,1.3l1.4,1.4l3-3c0.4-0.4,0.4-1,0-1.4l-3-3l-1.4,1.4l1.3,1.3H24V32.5z"/>
	</g>
</g>
</svg>