<?xml version="1.0" encoding="iso-8859-1"?>
<!-- Uploaded to: SVG Repo, www.svgrepo.com, Generator: SVG Repo Mixer Tools -->
<!DOCTYPE svg PUBLIC "-//W3C//DTD SVG 1.1//EN" "http://www.w3.org/Graphics/SVG/1.1/DTD/svg11.dtd">
<svg fill="#ffffff" version="1.1" id="Capa_1" xmlns="http://www.w3.org/2000/svg" xmlns:xlink="http://www.w3.org/1999/xlink"
	 width="800px" height="800px" viewBox="0 0 82.878 82.878"
	 xml:space="preserve">
<g>
	<g>
		<path d="M41.439,0C18.591,0,0,18.592,0,41.439c0,22.849,18.592,41.439,41.439,41.439c22.848,0,41.439-18.592,41.439-41.439
			C82.879,18.591,64.287,0,41.439,0z M18.144,45.473c-3.808,0-6.72-2.912-6.72-6.721c0-3.809,2.912-6.721,6.72-6.721
			c3.809,0,6.72,2.912,6.72,6.721C24.864,42.561,21.728,45.473,18.144,45.473z M38.081,63.393c-3.809,0-6.721-2.912-6.721-6.721
			s2.912-6.721,6.721-6.721c3.808,0,6.718,2.912,6.718,6.721S41.665,63.393,38.081,63.393z M56,27.551
			c-3.809,0-6.721-2.911-6.721-6.719c0-3.809,2.912-6.721,6.721-6.721s6.719,2.912,6.719,6.721S59.584,27.551,56,27.551z
			 M63.393,23.52c0.224-0.896,0.447-1.791,0.447-2.688c0-4.256-3.584-7.84-7.84-7.84s-7.84,3.584-7.84,7.84
			c0,2.464,1.117,4.48,2.91,6.047L40.096,49.057c-0.672-0.225-1.12-0.225-1.792-0.225c-1.568,0-3.136,0.447-4.48,1.344l-8.512-8.064
			c0.448-1.118,0.896-2.238,0.896-3.357c0-4.256-3.584-7.84-7.84-7.84c-4.257,0-7.841,3.584-7.841,7.84
			c0,1.119,0.225,2.017,0.672,2.912L5.15,46.368c-0.224-1.568-0.447-3.359-0.447-4.929c0-20.384,16.575-36.959,36.96-36.959
			c17.022,0,31.358,11.648,35.614,27.551L63.393,23.52z"/>
	</g>
</g>
</svg>