<?xml version="1.0" encoding="iso-8859-1"?>
<!-- Uploaded to: SVG Repo, www.svgrepo.com, Generator: SVG Repo Mixer Tools -->
<svg fill="#000000" height="800px" width="800px" version="1.1" id="Layer_1" xmlns="http://www.w3.org/2000/svg" xmlns:xlink="http://www.w3.org/1999/xlink" 
	 viewBox="0 0 64 64" xml:space="preserve">
<g>
	<g>
		<path d="M63,56h-2V25c0-2.757-2.243-5-5-5H35v-5.184c0.775-0.276,1.405-0.854,1.737-1.6l10.388,2.597
			C47.483,17.07,48.629,18,50,18c1.654,0,3-1.346,3-3V3c0-1.654-1.346-3-3-3c-1.371,0-2.517,0.93-2.874,2.188L36.737,4.785
			C36.27,3.735,35.221,3,34,3h-4c-1.221,0-2.27,0.735-2.737,1.785L16.874,2.188C16.517,0.93,15.371,0,14,0c-1.654,0-3,1.346-3,3v12
			c0,1.654,1.346,3,3,3c1.371,0,2.517-0.93,2.874-2.188l10.388-2.597c0.333,0.746,0.962,1.324,1.737,1.6V20h-9h-8H8
			c-2.757,0-5,2.243-5,5v31H1c-0.552,0-1,0.448-1,1c0,3.86,3.14,7,7,7h50c3.86,0,7-3.14,7-7C64,56.448,63.552,56,63,56z M49,3
			c0-0.551,0.449-1,1-1s1,0.449,1,1v12c0,0.551-0.449,1-1,1s-1-0.449-1-1V3z M37,6.781l10-2.5v9.438l-10-2.5V6.781z M15,15
			c0,0.551-0.449,1-1,1s-1-0.449-1-1V3c0-0.551,0.449-1,1-1s1,0.449,1,1V15z M27,11.219l-10,2.5V4.281l10,2.5V11.219z M29,6
			c0-0.551,0.449-1,1-1h4c0.551,0,1,0.449,1,1v6c0,0.551-0.449,1-1,1h-4c-0.551,0-1-0.449-1-1V6z M33,15v5h-2v-5H33z M13,22h6v8.382
			l-2.553-1.276C16.307,29.035,16.153,29,16,29s-0.307,0.035-0.447,0.105L13,30.382V22z M11.474,32.851
			c0.295,0.182,0.664,0.198,0.973,0.044L16,31.118l3.553,1.776C19.694,32.965,19.847,33,20,33c0.183,0,0.365-0.05,0.526-0.149
			C20.82,32.668,21,32.347,21,32v-6h34v26H9V26h2v6C11,32.347,11.18,32.668,11.474,32.851z M5,25c0-1.654,1.346-3,3-3h3v2H8
			c-0.552,0-1,0.448-1,1v28c0,0.552,0.448,1,1,1h48c0.552,0,1-0.448,1-1V25c0-0.552-0.448-1-1-1H21v-2h9h4h22c1.654,0,3,1.346,3,3
			v31H5V25z M57,62H7c-2.415,0-4.435-1.721-4.899-4H4h56h1.899C61.435,60.279,59.415,62,57,62z"/>
	</g>
</g>
<g>
	<g>
		<path d="M36.447,38.105l-6-3c-0.31-0.154-0.678-0.138-0.973,0.044C29.18,35.331,29,35.653,29,36v6c0,0.347,0.18,0.668,0.474,0.851
			C29.635,42.95,29.817,43,30,43c0.153,0,0.306-0.035,0.447-0.106l6-3C36.786,39.725,37,39.379,37,39S36.786,38.275,36.447,38.105z
			 M31,40.382v-2.764L33.764,39L31,40.382z"/>
	</g>
</g>
<g>
	<g>
		<path d="M32,30c-4.962,0-9,4.038-9,9s4.038,9,9,9s9-4.038,9-9S36.962,30,32,30z M32,46c-3.86,0-7-3.14-7-7s3.14-7,7-7s7,3.14,7,7
			S35.86,46,32,46z"/>
	</g>
</g>
<g>
	<g>
		<path d="M57.193,5.294L55.662,6.58c0.516,0.614,0.762,1.392,0.692,2.19c-0.069,0.798-0.446,1.521-1.06,2.037l1.286,1.531
			C58.691,10.565,58.966,7.405,57.193,5.294z"/>
	</g>
</g>
<g>
	<g>
		<path d="M60.256,2.721l-1.531,1.286c2.482,2.956,2.097,7.381-0.858,9.863l1.286,1.531C62.953,12.21,63.448,6.521,60.256,2.721z"/>
	</g>
</g>
<g>
	<g>
		<path d="M9.706,7.193L8.42,5.662c-2.111,1.773-2.386,4.933-0.613,7.044l1.531-1.286c-0.516-0.614-0.762-1.392-0.692-2.19
			C8.715,8.432,9.092,7.709,9.706,7.193z"/>
	</g>
</g>
<g>
	<g>
		<path d="M7.133,4.13L5.847,2.599c-3.8,3.191-4.295,8.88-1.103,12.68l1.531-1.286C3.793,11.037,4.178,6.613,7.133,4.13z"/>
	</g>
</g>
</svg>