<?xml version="1.0" encoding="iso-8859-1"?>
<!-- Uploaded to: SVG Repo, www.svgrepo.com, Generator: SVG Repo Mixer Tools -->
<!DOCTYPE svg PUBLIC "-//W3C//DTD SVG 1.1//EN" "http://www.w3.org/Graphics/SVG/1.1/DTD/svg11.dtd">
<svg fill="#000000" version="1.1" id="Capa_1" xmlns="http://www.w3.org/2000/svg" xmlns:xlink="http://www.w3.org/1999/xlink" 
	 width="800px" height="800px" viewBox="0 0 955.4 955.4" xml:space="preserve"
	>
<g>
	<path d="M165.351,0c-32.6,0-59,26.4-59,59v836.4c0,33.1,26.9,60,60,60H789.05c33.102,0,60-26.9,60-60V59c0-32.6-26.398-59-59-59
		H165.351z M477.75,896.1c-23.4,0-42.3-18.9-42.3-42.299c0-23.4,18.899-42.301,42.3-42.301c23.401,0,42.299,18.9,42.299,42.301
		C520.05,877.199,501.151,896.1,477.75,896.1z M773.151,725.4c0,16.6-13.4,30-30,30H212.351c-16.6,0-30-13.4-30-30V104.9
		c0-16.6,13.4-30,30-30H743.05c16.602,0,30,13.4,30,30v620.5H773.151z"/>
</g>
</svg>