<?xml version="1.0" encoding="utf-8"?>

<!DOCTYPE svg PUBLIC "-//W3C//DTD SVG 1.1//EN" "http://www.w3.org/Graphics/SVG/1.1/DTD/svg11.dtd">
<!-- Uploaded to: SVG Repo, www.svgrepo.com, Generator: SVG Repo Mixer Tools -->
<svg height="800px" width="800px" version="1.1" id="_x32_" xmlns="http://www.w3.org/2000/svg" xmlns:xlink="http://www.w3.org/1999/xlink" 
	 viewBox="0 0 512 512"  xml:space="preserve">
<style type="text/css">
	.st0{fill:#000000;}
</style>
<g>
	<path class="st0" d="M510.163,392.022l-45.59-57.326V93.611c0-11.662-9.458-21.12-21.12-21.12H68.546
		c-11.662,0-21.115,9.458-21.115,21.12v241.085L1.837,392.022C0.648,393.517,0,395.367,0,397.287v25.373
		c0,9.311,7.542,16.849,16.849,16.849h478.302c9.307,0,16.849-7.538,16.849-16.849v-25.373
		C512,395.367,511.356,393.517,510.163,392.022z M77.226,102.291h357.548v202.606H77.226V102.291z M304.121,419.47h-96.242v-25.478
		h96.242V419.47z"/>
</g>
</svg>