<?xml version="1.0" encoding="iso-8859-1"?>
<!-- Uploaded to: SVG Repo, www.svgrepo.com, Generator: SVG Repo Mixer Tools -->
<svg fill="#000000" height="800px" width="800px" version="1.1" id="Layer_1" xmlns="http://www.w3.org/2000/svg" xmlns:xlink="http://www.w3.org/1999/xlink" 
	 viewBox="0 0 512 512" xml:space="preserve">
<g>
	<g>
		<path d="M479.805,238.228h-18.466c-5.073-32.87-33.676-58.125-68.096-58.125h-229.35c-16.649,0-32.088-6.617-43.472-18.634
			c-3.97-4.189-10.581-4.369-14.773-0.399c-4.189,3.969-4.368,10.582-0.399,14.772c15.148,15.989,36.522,25.159,58.643,25.159
			h229.351c22.85,0,42.009,15.949,46.822,37.227H32.196C14.443,238.228,0,252.633,0,270.34v169.844
			c0,17.706,14.443,32.11,32.196,32.11h447.609c17.752,0,32.194-14.404,32.194-32.109V270.34
			C512,252.633,497.557,238.228,479.805,238.228z M491.103,440.185h-0.001c0,6.182-5.068,11.211-11.297,11.211H32.196
			c-6.23,0-11.299-5.029-11.299-11.211V270.34c0-6.183,5.069-11.214,11.299-11.214h419.362c0.044,0.001,0.087,0.006,0.132,0.006
			s0.087-0.006,0.132-0.006h27.983c6.23,0,11.297,5.03,11.297,11.214V440.185z"/>
	</g>
</g>
<g>
	<g>
		<path d="M477.081,288.185c0-8.525-6.935-15.46-15.459-15.46h-24.272c-3.337,0-6.423,1.074-8.953,2.88
			c-2.529-1.806-5.612-2.88-8.948-2.88h-23.209c-8.524,0-15.46,6.935-15.46,15.46v34.095c0,3.338,1.074,6.424,2.881,8.954
			c-1.807,2.53-2.881,5.615-2.881,8.953v30.151c0,3.34,1.075,6.426,2.882,8.956c-1.807,2.53-2.882,5.616-2.882,8.955v34.093
			c0,8.526,6.936,15.462,15.46,15.462h23.209c3.336,0,6.42-1.074,8.948-2.88c2.53,1.806,5.615,2.88,8.953,2.88h24.272
			c8.524,0,15.459-6.936,15.459-15.462v-34.093c0-3.339-1.075-6.425-2.882-8.955c1.807-2.53,2.882-5.616,2.882-8.956v-30.151
			c0-3.337-1.074-6.423-2.88-8.953c1.806-2.53,2.88-5.615,2.88-8.954V288.185z M414.004,416.905h-12.327v-23.219h12.327V416.905z
			 M414.004,364.899h-12.327v-19.273h12.327V364.899z M414.004,316.841h-12.327v-23.219h12.327V316.841z M456.183,416.905h-13.393
			v-23.219h13.393V416.905z M456.183,364.899h-13.393v-19.273h13.393V364.899z M456.183,316.841h-13.393v-23.219h13.393V316.841z"/>
	</g>
</g>
<g>
	<g>
		<path d="M361.621,287.985c0-8.415-6.846-15.261-15.26-15.261h-32.538c-3.258,0-6.275,1.035-8.756,2.781
			c-2.482-1.746-5.497-2.781-8.756-2.781h-34.863c-3.258,0-6.275,1.035-8.756,2.781c-2.482-1.746-5.497-2.781-8.756-2.781h-34.858
			c-3.258,0-6.275,1.034-8.756,2.781c-2.482-1.746-5.497-2.781-8.755-2.781h-34.864c-3.258,0-6.275,1.035-8.756,2.781
			c-2.482-1.746-5.498-2.781-8.756-2.781h-34.863c-3.258,0-6.275,1.035-8.756,2.781c-2.482-1.746-5.498-2.781-8.756-2.781H50.179
			c-8.415,0-15.26,6.846-15.26,15.261v34.491c0,3.259,1.036,6.276,2.782,8.757c-1.746,2.482-2.782,5.498-2.782,8.757v30.547
			c0,3.258,1.036,6.275,2.782,8.756c-1.746,2.482-2.782,5.498-2.782,8.756v34.491c0,8.416,6.846,15.262,15.26,15.262h36.635
			c3.258,0,6.275-1.036,8.756-2.781c2.482,1.746,5.497,2.781,8.756,2.781h34.863c3.258,0,6.275-1.036,8.756-2.781
			c2.482,1.746,5.497,2.781,8.756,2.781h87.233c3.258,0,6.275-1.036,8.756-2.781c2.482,1.746,5.498,2.781,8.756,2.781h34.863
			c3.258,0,6.275-1.036,8.756-2.781c2.482,1.746,5.498,2.781,8.756,2.781h32.538c8.415,0,15.26-6.846,15.26-15.262V388.05
			c0-3.259-1.035-6.275-2.781-8.756c1.746-2.482,2.781-5.498,2.781-8.756v-30.547c0-3.259-1.035-6.276-2.781-8.757
			c1.746-2.482,2.781-5.498,2.781-8.757V287.985z M55.817,345.626h5.089v19.273h-5.089V345.626z M81.178,416.905H55.817v-23.219
			h25.361V416.905z M81.178,316.841H55.817v-23.219h25.361V316.841z M214.713,293.623h23.585v23.219h-23.585V293.623z
			 M191.06,345.626h23.591v19.273H191.06V345.626z M109.899,364.899H89.685v-19.273h20.215V364.899z M133.554,416.905h-23.591
			v-23.219h23.591V416.905z M133.554,316.841h-23.591c0,0,0-23.219,0-23.219h23.591V316.841z M162.275,364.899h-23.591v-19.273
			h23.591V364.899z M162.338,293.623h23.59v23.219h-23.59V293.623z M238.299,416.905h-75.96v-23.219h75.96V416.905z
			 M267.021,364.899H243.43v-19.273h23.591V364.899z M267.083,293.623h23.591v23.219h-23.591V293.623z M290.675,416.905h-23.591
			v-23.219h23.591V416.905z M340.723,416.905h-21.265v-23.219h21.265V416.905z M340.723,364.899h-44.918v-19.273h44.918V364.899z
			 M340.723,316.841h-21.265v-23.219h21.265V316.841z"/>
	</g>
</g>
<g>
	<g>
		<path d="M368.381,39.706H163.892c-21.511,0-41.76,8.479-57.016,23.875c-15.199,15.339-23.57,35.639-23.569,57.16
			c0,9.691,1.709,19.164,5.078,28.156c1.574,4.196,5.555,6.785,9.785,6.785c1.219,0,2.459-0.215,3.667-0.668
			c5.404-2.025,8.142-8.048,6.117-13.452c-2.489-6.638-3.75-13.643-3.75-20.822c-0.001-15.975,6.219-31.051,17.516-42.45
			c11.302-11.405,26.278-17.686,42.172-17.686h204.489c5.77,0,10.449-4.678,10.449-10.449
			C378.83,44.384,374.151,39.706,368.381,39.706z"/>
	</g>
</g>
</svg>